<svg width="17" height="22" viewBox="0 0 17 22" fill="none" xmlns="http://www.w3.org/2000/svg">
    <path d="M15.75 8.6109C15.75 9.47077 15.3256 10.6961 14.5836 12.1324C13.8562 13.5407 12.8782 15.0504 11.8882 16.4466C10.9001 17.8399 9.91054 19.1056 9.16713 20.0236C8.91206 20.3386 8.68633 20.6123 8.5 20.8357C8.31367 20.6123 8.08793 20.3386 7.83287 20.0236C7.08946 19.1056 6.09985 17.8399 5.11179 16.4466C4.12178 15.0504 3.14379 13.5407 2.41635 12.1324C1.67445 10.6961 1.25 9.47077 1.25 8.6109C1.25 4.85364 4.46068 1.74551 8.5 1.74551C12.5393 1.74551 15.75 4.85364 15.75 8.6109Z" stroke="#A6AFC3" stroke-width="1.5"/>
    <path d="M12.3557 8.14865C12.3557 10.1216 10.6645 11.7833 8.49962 11.7833C6.33472 11.7833 4.64355 10.1216 4.64355 8.14865C4.64355 6.1757 6.33472 4.51404 8.49962 4.51404C10.6645 4.51404 12.3557 6.1757 12.3557 8.14865Z" stroke="#A6AFC3" stroke-width="1.5"/>
</svg>
