<svg width="15" height="22" viewBox="0 0 15 22" fill="none" xmlns="http://www.w3.org/2000/svg">
    <path d="M12.9444 0.995514H2.05556C1.643 0.995514 1.24734 1.15355 0.955612 1.43485C0.663889 1.71616 0.5 2.09769 0.5 2.49551V20.4955C0.5 20.8933 0.663889 21.2749 0.955612 21.5562C1.24734 21.8375 1.643 21.9955 2.05556 21.9955H12.9444C13.357 21.9955 13.7527 21.8375 14.0444 21.5562C14.3361 21.2749 14.5 20.8933 14.5 20.4955V2.49551C14.5 2.09769 14.3361 1.71616 14.0444 1.43485C13.7527 1.15355 13.357 0.995514 12.9444 0.995514ZM2.05556 2.49551H12.9444V15.9955H2.05556V2.49551ZM2.05556 20.4955V17.4955H12.9444V20.4955H2.05556Z" fill="#A6AFC3"/>
    <path d="M6.72217 18.2451H8.27772V19.7451H6.72217V18.2451Z" fill="#A6AFC3"/>
</svg>
